<svg width="14" height="16" viewBox="0 0 14 16" fill="currentColor" xmlns="http://www.w3.org/2000/svg">
<g clip-path="url(#clip0_53_335)">
<path d="M8.96772 1.33751L9.14272 1.07501L9.31772 0.818757L9.70522 0.237507C9.75522 0.168757 9.73647 0.0687563 9.66147 0.0250063C9.59272 -0.0249937 9.49272 -0.00624293 9.44897 0.0687571L9.03647 0.687507L8.86147 0.950006L8.68647 1.21251C8.12397 0.993756 7.50522 0.875007 6.84272 0.875007C6.18647 0.875007 5.56147 0.993756 4.99897 1.21251L4.82397 0.950006L4.64897 0.687507L4.23647 0.0687571C4.18647 7.0706e-06 4.09272 -0.0187437 4.02397 0.0250063C3.95522 0.0750063 3.93647 0.168757 3.98022 0.237507L4.36772 0.818757L4.54272 1.07501L4.71772 1.33751C3.40522 1.95001 2.51147 3.10626 2.51147 4.43751H11.1802C11.174 3.10626 10.2865 1.95001 8.96772 1.33751ZM4.98022 3.19376C4.72397 3.19376 4.51772 2.98751 4.51772 2.73126C4.51772 2.47501 4.72397 2.26876 4.98022 2.26876C5.23647 2.26876 5.44272 2.47501 5.44272 2.73126C5.44272 2.98751 5.23647 3.19376 4.98022 3.19376ZM8.69272 3.19376C8.43647 3.19376 8.23022 2.98751 8.23022 2.73126C8.23022 2.47501 8.43647 2.26876 8.69272 2.26876C8.94897 2.26876 9.15522 2.47501 9.15522 2.73126C9.16147 2.98751 8.95522 3.19376 8.69272 3.19376Z" fill="currentColor"/>
<path d="M2.56774 5.05L2.49899 5.05625V5.825V6.45625V11.8688C2.49899 12.4125 2.93649 12.85 3.48024 12.85H4.18649C4.16149 12.9313 4.14899 13.0188 4.14899 13.1063V13.1563V13.4688V15.0688C4.14899 15.5813 4.56774 16 5.08024 16C5.59274 16 6.01149 15.5813 6.01149 15.0688V13.4688V13.1563V13.1063C6.01149 13.0188 5.99899 12.9313 5.97399 12.85H7.69899C7.67399 12.9313 7.66149 13.0188 7.66149 13.1063V13.1563V13.4688V15.0688C7.66149 15.5813 8.08024 16 8.59274 16C9.10524 16 9.52399 15.5813 9.52399 15.0688V13.4688V13.1563V13.1063C9.52399 13.0188 9.51149 12.9313 9.48649 12.85H10.1927C10.7365 12.85 11.174 12.4125 11.174 11.8688V6.45625V5.825V5.05H11.1052H2.56774Z" fill="currentColor"/>
<path d="M0.955236 5.05626C0.442736 5.05626 0.0239868 5.47501 0.0239868 5.98751V9.96251C0.0239868 10.475 0.442736 10.8938 0.955236 10.8938C1.46774 10.8938 1.88649 10.475 1.88649 9.96251V5.98751C1.88024 5.46876 1.46774 5.05626 0.955236 5.05626Z" fill="currentColor"/>
<path d="M12.724 5.05626C12.2115 5.05626 11.7927 5.47501 11.7927 5.98751V9.96251C11.7927 10.475 12.2115 10.8938 12.724 10.8938C13.2365 10.8938 13.6552 10.475 13.6552 9.96251V5.98751C13.649 5.46876 13.2365 5.05626 12.724 5.05626Z" fill="currentColor"/>
</g>
<defs>
<clipPath id="clip0_53_335">
<rect width="13.625" height="16" fill="currentColor" transform="translate(0.0239868)"/>
</clipPath>
</defs>
</svg>
