<svg width="14" height="16" viewBox="0 0 14 16" fill="none" xmlns="http://www.w3.org/2000/svg">
<g clip-path="url(#clip0_53_331)">
<path d="M12.6096 5.4544C12.5168 5.5264 10.8784 6.4496 10.8784 8.5024C10.8784 10.8768 12.9632 11.7168 13.0256 11.7376C13.016 11.7888 12.6944 12.888 11.9264 14.008C11.2416 14.9936 10.5264 15.9776 9.4384 15.9776C8.3504 15.9776 8.0704 15.3456 6.8144 15.3456C5.5904 15.3456 5.1552 15.9984 4.16 15.9984C3.1648 15.9984 2.4704 15.0864 1.672 13.9664C0.7472 12.6512 0 10.608 0 8.6688C0 5.5584 2.0224 3.9088 4.0128 3.9088C5.0704 3.9088 5.952 4.6032 6.616 4.6032C7.248 4.6032 8.2336 3.8672 9.4368 3.8672C9.8928 3.8672 11.5312 3.9088 12.6096 5.4544ZM8.8656 2.5504C9.3632 1.96 9.7152 1.1408 9.7152 0.3216C9.7152 0.208 9.7056 0.0928 9.6848 0C8.8752 0.0304 7.912 0.5392 7.3312 1.2128C6.8752 1.7312 6.4496 2.5504 6.4496 3.3808C6.4496 3.5056 6.4704 3.6304 6.48 3.6704C6.5312 3.68 6.6144 3.6912 6.6976 3.6912C7.424 3.6912 8.3376 3.2048 8.8656 2.5504Z" fill="currentColor"/>
</g>
<defs>
<clipPath id="clip0_53_331">
<rect width="13.024" height="16" fill="currentColor"/>
</clipPath>
</defs>
</svg>
