<svg width="17" height="16" viewBox="0 0 17 16" fill="none" xmlns="http://www.w3.org/2000/svg">
<path d="M8.11049 4.04C8.09799 4.076 8.03999 4.0705 8.00699 4.081C7.97749 4.0965 7.95349 4.1235 7.91949 4.1235C7.88849 4.1235 7.83849 4.111 7.83449 4.081C7.82849 4.04 7.88949 3.998 7.92799 3.998C7.95299 3.986 7.98199 3.9795 8.01249 3.9795C8.04049 3.9795 8.06699 3.985 8.09099 3.9955L8.08949 3.995C8.10049 3.9995 8.10849 4.01 8.10849 4.0225C8.10849 4.024 8.10849 4.025 8.10799 4.0265V4.039H8.10999L8.11049 4.04ZM8.45449 4.04V4.0265C8.45049 4.014 8.46249 4.0005 8.47249 3.9955C8.49549 3.9855 8.52249 3.9795 8.55099 3.9795C8.58149 3.9795 8.61049 3.9865 8.63599 3.9985L8.63499 3.998C8.67449 3.998 8.73499 4.04 8.72849 4.0825C8.72499 4.113 8.67549 4.1235 8.64399 4.1235C8.60949 4.1235 8.58649 4.0965 8.55599 4.081C8.52349 4.0695 8.46499 4.076 8.45399 4.0405L8.45449 4.04ZM9.13049 5.029C8.86449 5.1975 8.54999 5.316 8.21299 5.362L8.20099 5.3635C7.89799 5.346 7.62249 5.2395 7.39749 5.0695L7.40099 5.072C7.30499 4.9885 7.22599 4.9045 7.16799 4.8625C7.06549 4.779 7.07799 4.6545 7.12199 4.6545C7.18999 4.6645 7.20249 4.738 7.24649 4.7795C7.30649 4.8205 7.38099 4.9045 7.47149 4.9875C7.66999 5.1515 7.92099 5.258 8.19649 5.279L8.20099 5.2795C8.52799 5.251 8.82549 5.146 9.08249 4.9835L9.07449 4.9885C9.19649 4.904 9.35249 4.78 9.47949 4.6965C9.57699 4.6115 9.57249 4.5295 9.65399 4.5295C9.73399 4.5395 9.67549 4.613 9.56199 4.737C9.43899 4.831 9.29849 4.9275 9.15299 5.017L9.13099 5.0295L9.13049 5.029ZM4.65749 10.6985H4.66349C4.69799 10.6985 4.73199 10.702 4.76499 10.708L4.76149 10.7075C5.03349 10.7775 5.25749 10.9465 5.39799 11.173L5.40049 11.1775L5.96899 12.217L5.97099 12.219C6.19949 12.6055 6.44499 12.94 6.71949 13.2485L6.71399 13.242C6.95899 13.502 7.12399 13.84 7.16849 14.215L7.16949 14.223V14.227C7.16349 14.6355 6.86299 14.9725 6.47149 15.035L6.46699 15.0355C6.36699 15.051 6.25099 15.0595 6.13349 15.0595C5.70499 15.0595 5.30399 14.943 4.95999 14.7395L4.97049 14.7455C4.44399 14.525 3.83299 14.3885 3.19299 14.3695H3.18549C2.99949 14.357 2.83749 14.262 2.73499 14.1215L2.73399 14.12C2.70699 14.033 2.69149 13.933 2.69149 13.829C2.69149 13.654 2.73549 13.4895 2.81349 13.346L2.81099 13.3515V13.349L2.81249 13.347C2.83299 13.253 2.84499 13.1445 2.84499 13.0335C2.84499 12.8965 2.82699 12.764 2.79299 12.638L2.79549 12.6485C2.77499 12.5735 2.76299 12.487 2.76299 12.3975C2.76299 12.2765 2.78449 12.161 2.82449 12.054L2.82249 12.061C2.92249 11.8525 3.06999 11.811 3.25349 11.728C3.47249 11.6615 3.66299 11.561 3.82899 11.4315L3.82499 11.4345H3.82599V11.433C3.98599 11.2655 4.10399 11.0575 4.24349 10.9095C4.34099 10.785 4.48949 10.7045 4.65699 10.6995H4.65799L4.65749 10.6985ZM11.4145 10.668C11.414 10.6765 11.414 10.687 11.414 10.6975C11.414 11.069 11.6385 11.388 11.9595 11.5265L11.9655 11.529C11.9895 11.5305 12.0175 11.5315 12.0455 11.5315C12.461 11.5315 12.833 11.346 13.083 11.053L13.0845 11.051L13.2165 11.045C13.243 11.041 13.2735 11.039 13.3045 11.039C13.475 11.039 13.6305 11.105 13.746 11.213L13.7455 11.2125L13.7475 11.2145C13.872 11.365 13.9585 11.551 13.991 11.7555L13.992 11.762C14.0195 12.0145 14.111 12.242 14.2505 12.432L14.248 12.428C14.456 12.606 14.6005 12.853 14.6445 13.1335L14.6455 13.14L14.6475 13.1355V13.1465L14.6455 13.139C14.636 13.3025 14.53 13.3865 14.3345 13.511C13.7425 13.7595 13.234 14.09 12.796 14.495L12.7995 14.492C12.4955 14.888 12.049 15.1615 11.538 15.235L11.5275 15.236C11.4905 15.241 11.4475 15.244 11.404 15.244C11.02 15.244 10.69 15.012 10.546 14.681L10.5435 14.675L10.5405 14.673C10.494 14.53 10.4675 14.3655 10.4675 14.195C10.4675 13.987 10.507 13.7885 10.5795 13.606L10.5755 13.617C10.6925 13.283 10.793 12.884 10.8595 12.473L10.865 12.4315C10.873 12.0255 10.917 11.635 10.994 11.2565L10.987 11.298C11.0295 11.039 11.1775 10.821 11.384 10.6855L11.3875 10.6835L11.4155 10.67L11.4145 10.668ZM10.049 5.071C10.349 6.1445 10.7185 7.072 11.1725 7.9495L11.133 7.866C11.4395 8.411 11.678 9.0435 11.8145 9.7135L11.8215 9.7555C11.826 9.7555 11.8315 9.7555 11.837 9.7555C11.9455 9.7555 12.0505 9.77 12.1505 9.7975L12.142 9.7955C12.197 9.598 12.2285 9.3715 12.2285 9.1375C12.2285 8.4245 11.935 7.7795 11.462 7.318L11.4615 7.3175C11.324 7.1925 11.3165 7.108 11.3845 7.108C11.87 7.563 12.229 8.147 12.407 8.805L12.413 8.8305C12.4575 8.995 12.483 9.184 12.483 9.379C12.483 9.5545 12.4625 9.7255 12.4235 9.889L12.4265 9.874C12.4635 9.893 12.5065 9.9075 12.552 9.9155L12.555 9.916C13.2 10.2495 13.438 10.502 13.3235 10.8765V10.8495C13.286 10.8475 13.2485 10.8495 13.211 10.8495H13.201C13.2955 10.5575 13.0875 10.334 12.5355 10.0845C11.964 9.8345 11.507 9.8745 11.4295 10.375C11.424 10.3995 11.42 10.428 11.4185 10.4575V10.459C11.382 10.474 11.3385 10.488 11.2935 10.498L11.288 10.499C11.034 10.667 10.853 10.9285 10.7935 11.2335L10.7925 11.2405C10.7185 11.588 10.672 11.9905 10.6645 12.402V12.408V12.41C10.619 12.7285 10.5495 13.0135 10.4555 13.2865L10.4655 13.2535C9.97399 13.6555 9.33999 13.8985 8.64849 13.8985C8.08349 13.8985 7.55649 13.736 7.11199 13.455L7.12399 13.462C7.05099 13.3355 6.96749 13.226 6.87249 13.1285L6.87299 13.129C6.82449 13.049 6.76749 12.9805 6.70199 12.9215L6.70099 12.921C6.80449 12.921 6.90449 12.9055 6.99899 12.877L6.99149 12.879C7.08149 12.8365 7.15049 12.763 7.18699 12.673L7.18799 12.6705C7.19699 12.624 7.20249 12.571 7.20249 12.5165C7.20249 12.294 7.11499 12.0925 6.97199 11.9435L6.97249 11.944C6.66299 11.5635 6.29299 11.2465 5.87449 11.004L5.85549 10.994C5.51999 10.8 5.26599 10.4965 5.14049 10.133L5.13699 10.122C5.09049 9.963 5.06349 9.78 5.06349 9.591C5.06349 9.4145 5.08699 9.2435 5.13049 9.0805L5.12749 9.094C5.31599 8.437 5.58799 7.8635 5.93749 7.346L5.92349 7.3675C5.99049 7.327 5.94649 7.452 5.66849 7.976C5.43149 8.3325 5.28999 8.771 5.28999 9.2425C5.28999 9.6625 5.40199 10.056 5.59799 10.3955L5.59199 10.3845C5.61799 9.73 5.76449 9.116 6.00899 8.555L5.99649 8.5875C6.52399 7.6365 6.92349 6.532 7.13399 5.3615L7.14399 5.296C7.17399 5.3185 7.27949 5.3805 7.32449 5.422C7.46049 5.505 7.56199 5.63 7.69299 5.7125C7.82649 5.8425 8.00949 5.9225 8.21049 5.9225C8.22099 5.9225 8.23149 5.9225 8.24199 5.922H8.24049C8.26499 5.924 8.28749 5.926 8.30899 5.926C8.53849 5.9215 8.75249 5.86 8.93849 5.755L8.93199 5.7585C9.11299 5.675 9.25699 5.55 9.39449 5.5085H9.39749C9.66499 5.436 9.88899 5.2815 10.0475 5.074L10.0495 5.071H10.049ZM8.29949 3.7325C8.30099 3.7325 8.30249 3.7325 8.30399 3.7325C8.58849 3.7325 8.85099 3.826 9.06249 3.984L9.05899 3.9815C9.24799 4.0985 9.46599 4.198 9.69649 4.2685L9.71649 4.2735H9.71849C9.84149 4.3285 9.94299 4.414 10.0155 4.5205L10.017 4.523V4.441C10.04 4.487 10.054 4.5415 10.054 4.599C10.054 4.648 10.044 4.6945 10.0265 4.737L10.0275 4.7345C9.88349 4.988 9.64999 5.1765 9.37099 5.2585L9.36299 5.2605V5.2615C9.19549 5.346 9.04999 5.4695 8.87899 5.552C8.70399 5.657 8.49349 5.719 8.26799 5.719C8.26049 5.719 8.25299 5.719 8.24549 5.719H8.24649C8.23549 5.7195 8.22249 5.72 8.20949 5.72C8.12249 5.72 8.03849 5.7045 7.96149 5.6755L7.96649 5.677C7.88699 5.6335 7.82149 5.5925 7.75799 5.5485L7.76499 5.5535C7.65149 5.454 7.52649 5.3585 7.39549 5.271L7.38249 5.263V5.26H7.37949C7.19199 5.1605 7.04449 5.008 6.95349 4.822L6.95099 4.816C6.93749 4.7825 6.92999 4.7435 6.92999 4.703C6.92999 4.594 6.98599 4.498 7.07049 4.442L7.07149 4.4415C7.21149 4.357 7.30899 4.272 7.37349 4.2315C7.43849 4.1855 7.46299 4.168 7.48349 4.1495H7.48449V4.1475C7.61849 3.978 7.79599 3.848 8.00049 3.7745L8.00849 3.772C8.09549 3.747 8.19549 3.7325 8.29899 3.7315L8.29949 3.7325ZM7.44349 2.6665H7.46599C7.55999 2.6685 7.64649 2.7 7.71649 2.7515L7.71549 2.7505C7.80499 2.83 7.87799 2.9265 7.92799 3.0355L7.92999 3.041C7.98649 3.1635 8.02149 3.306 8.02549 3.456V3.4575V3.46C8.02749 3.483 8.02849 3.5095 8.02849 3.536C8.02849 3.5675 8.02699 3.599 8.02399 3.63L8.02449 3.626V3.676C8.00599 3.6805 7.98949 3.687 7.97249 3.691C7.87699 3.7305 7.79649 3.7725 7.71999 3.82L7.72699 3.816C7.73099 3.7885 7.73299 3.757 7.73299 3.725C7.73299 3.6985 7.73149 3.672 7.72849 3.646L7.72899 3.649V3.6395C7.71999 3.5625 7.70199 3.492 7.67549 3.4255L7.67749 3.431C7.65699 3.365 7.62099 3.309 7.57399 3.2645C7.54649 3.2395 7.50999 3.224 7.46949 3.224C7.46599 3.224 7.46249 3.224 7.45899 3.2245H7.45949H7.44649C7.39499 3.23 7.35199 3.262 7.33049 3.306L7.32999 3.307C7.29149 3.3535 7.26499 3.411 7.25499 3.474V3.476C7.24349 3.519 7.23749 3.5685 7.23749 3.6195C7.23749 3.6415 7.23849 3.6635 7.24099 3.685V3.6825V3.692C7.24899 3.769 7.26699 3.84 7.29299 3.906L7.29099 3.9005C7.31199 3.9665 7.34749 4.023 7.39449 4.068C7.40049 4.074 7.40749 4.079 7.41549 4.083H7.41599C7.37449 4.1095 7.33849 4.1375 7.30549 4.1685L7.30599 4.168C7.28349 4.188 7.25599 4.203 7.22549 4.21L7.22399 4.2105C7.16249 4.137 7.10549 4.0545 7.05649 3.9675L7.05249 3.9595C6.99599 3.837 6.96099 3.695 6.95549 3.5445V3.5425C6.95349 3.5185 6.95249 3.4905 6.95249 3.462C6.95249 3.3415 6.97199 3.2255 7.00749 3.117L7.00549 3.125C7.04249 2.996 7.10299 2.8845 7.18349 2.7895L7.18249 2.791C7.24599 2.716 7.33899 2.6685 7.44349 2.666H7.44399L7.44349 2.6665ZM9.29449 2.6295H9.30249C9.30299 2.6295 9.30349 2.6295 9.30449 2.6295C9.44199 2.6295 9.56799 2.676 9.66899 2.754L9.66749 2.753C9.78199 2.8415 9.87399 2.953 9.93849 3.0805L9.94099 3.086C10.0015 3.219 10.039 3.3735 10.0445 3.5365V3.5385C10.0445 3.526 10.048 3.5135 10.048 3.501V3.5665L10.0455 3.5535L10.043 3.5385C10.0415 3.6985 10.0075 3.8495 9.94649 3.987L9.94949 3.98C9.91849 4.0615 9.87349 4.1315 9.81649 4.1895C9.80149 4.1805 9.78299 4.172 9.76449 4.1645L9.76149 4.1635C9.69399 4.1425 9.63499 4.114 9.58149 4.079L9.58399 4.0805C9.54549 4.0645 9.49949 4.0505 9.45199 4.04L9.44649 4.039C9.48699 4.001 9.52449 3.9605 9.55899 3.9175L9.56099 3.915C9.59249 3.841 9.61199 3.7555 9.61599 3.6655V3.664V3.6515C9.61599 3.6475 9.61599 3.6435 9.61599 3.639C9.61599 3.554 9.60199 3.4725 9.57599 3.3965L9.57749 3.402C9.54599 3.3225 9.50749 3.254 9.46149 3.1915L9.46349 3.194C9.41999 3.15 9.36249 3.12 9.29799 3.1115H9.29649H9.28649C9.28599 3.1115 9.28499 3.1115 9.28449 3.1115C9.21849 3.1115 9.15949 3.144 9.12349 3.1935L9.12299 3.194C9.06499 3.2505 9.02099 3.3205 8.99599 3.399L8.99499 3.4025C8.96349 3.476 8.94299 3.5615 8.93899 3.6505V3.652V3.664C8.93999 3.724 8.94449 3.782 8.95249 3.8385L8.95149 3.831C8.83099 3.789 8.67799 3.7465 8.57199 3.705C8.56599 3.6685 8.56199 3.6255 8.56099 3.5815V3.58V3.5675C8.56049 3.5575 8.56049 3.546 8.56049 3.5345C8.56049 3.3725 8.59499 3.219 8.65749 3.0805L8.65449 3.0875C8.70749 2.948 8.80099 2.8335 8.92049 2.756L8.92299 2.7545C9.02499 2.6765 9.15449 2.6295 9.29449 2.6295ZM8.96399 0.501999C8.86699 0.501999 8.76699 0.506999 8.66399 0.514999C6.02349 0.722999 6.72399 3.5185 6.68349 4.45C6.65849 5.163 6.41649 5.8145 6.02099 6.346L6.02749 6.337C5.32399 7.138 4.74999 8.074 4.35199 9.0985L4.33049 9.162C4.20149 9.5045 4.12649 9.9 4.12649 10.313C4.12649 10.4555 4.13549 10.596 4.15249 10.7335L4.15099 10.717C4.12299 10.74 4.09949 10.768 4.08299 10.8L4.08249 10.8015C3.91999 10.969 3.80149 11.1765 3.66799 11.3255C3.52649 11.434 3.36049 11.5195 3.18049 11.5725L3.16999 11.575C2.93799 11.6445 2.74899 11.796 2.63249 11.9955L2.62999 12C2.57799 12.106 2.54749 12.2305 2.54749 12.3625C2.54749 12.3675 2.54749 12.372 2.54749 12.377C2.54849 12.496 2.56049 12.611 2.58399 12.723L2.58199 12.7115C2.60999 12.821 2.62599 12.947 2.62599 13.0765C2.62599 13.1615 2.61899 13.245 2.60549 13.3265L2.60649 13.3175C2.52299 13.474 2.47449 13.66 2.47449 13.8575C2.47449 13.9965 2.49849 14.1295 2.54299 14.253L2.54049 14.245C2.67699 14.439 2.88349 14.576 3.12249 14.6195L3.12799 14.6205C3.76499 14.674 4.35349 14.807 4.90849 15.0105L4.86149 14.9955C5.21049 15.203 5.63099 15.3255 6.07949 15.3255C6.22649 15.3255 6.37049 15.3125 6.51049 15.287L6.49599 15.289C6.82949 15.2135 7.10149 14.996 7.24799 14.7045L7.25099 14.698C7.61799 14.696 8.01949 14.53 8.66299 14.4895C9.09949 14.4535 9.64649 14.6565 10.273 14.6145C10.2915 14.694 10.316 14.7635 10.347 14.829L10.344 14.8225L10.346 14.8245C10.538 15.2265 10.941 15.4995 11.408 15.4995C11.4485 15.4995 11.4885 15.4975 11.528 15.4935L11.523 15.494C12.0985 15.409 12.5925 15.11 12.9295 14.6825L12.933 14.678C13.3545 14.294 13.8465 13.9775 14.3855 13.7515L14.419 13.739C14.635 13.6435 14.79 13.4465 14.824 13.2095L14.8245 13.206C14.795 12.859 14.6285 12.5565 14.3805 12.348L14.3785 12.3465V12.286L14.3765 12.284C14.2695 12.119 14.1945 11.923 14.166 11.713L14.165 11.7055C14.1385 11.449 14.026 11.2225 13.8575 11.052H13.8555C13.8185 11.0185 13.7785 11.01 13.738 10.9675C13.705 10.944 13.664 10.9295 13.6195 10.9275C13.717 10.6265 13.773 10.2805 13.773 9.921C13.773 9.451 13.6765 9.0035 13.5025 8.5975L13.511 8.6195C13.159 7.7835 12.7015 7.064 12.145 6.435L12.152 6.4435C11.5995 5.9025 11.238 5.168 11.178 4.35L11.1775 4.3395C11.194 2.995 11.325 0.507499 8.96299 0.503999L8.96399 0.501999Z" fill="currentColor"/>
</svg>
