<svg width="17" height="16" viewBox="0 0 17 16" fill="none" xmlns="http://www.w3.org/2000/svg">
<g clip-path="url(#clip0_53_333)">
<path d="M9.47449 16H11.925C14.175 16 16.024 14.151 16.024 11.901V4.099C16.024 1.849 14.175 0 11.925 0H9.42499C9.37549 0 9.32349 0.0495 9.32349 0.099V15.901C9.32349 15.9505 9.37299 16 9.47449 16ZM12.524 7.2005C13.425 7.2005 14.123 7.9505 14.123 8.7995C14.123 9.7005 13.373 10.3985 12.524 10.3985C11.623 10.3985 10.925 9.7005 10.925 8.7995C10.873 7.901 11.623 7.2005 12.524 7.2005ZM7.62299 0H4.12299C1.87299 0 0.0239868 1.849 0.0239868 4.099V11.901C0.0239868 14.151 1.87299 16 4.12299 16H7.62299C7.67249 16 7.72449 15.9505 7.72449 15.901V0.099C7.72449 0.0495 7.67499 0 7.62299 0ZM6.47449 14.7005H4.12299C2.57349 14.7005 1.32349 13.4505 1.32349 11.901V4.099C1.32349 2.5495 2.57349 1.2995 4.12299 1.2995H6.42499L6.47449 14.7005ZM2.52399 4.7995C2.52399 5.6485 3.17499 6.2995 4.02399 6.2995C4.87299 6.2995 5.52399 5.6485 5.52399 4.7995C5.52399 3.9505 4.87299 3.2995 4.02399 3.2995C3.17499 3.2995 2.52399 3.9505 2.52399 4.7995Z" fill="currentColor"/>
</g>
<defs>
<clipPath id="clip0_53_333">
<rect width="16" height="16" fill="currentColor" transform="translate(0.0239868)"/>
</clipPath>
</defs>
</svg>
