<svg width="17" height="16" viewBox="0 0 17 16" fill="none" xmlns="http://www.w3.org/2000/svg">
<g clip-path="url(#clip0_53_563)">
<path d="M1.65498 12.124C0.46798 11.7835 0.27148 11.082 0.80998 10.6745C1.19798 10.4195 1.64398 10.1975 2.11598 10.0305L2.15948 10.017L5.66798 8.75899V10.204L3.15298 11.1235C2.71248 11.293 2.63748 11.5185 3.00348 11.6395C3.18598 11.686 3.39498 11.713 3.61048 11.713C3.91798 11.713 4.21248 11.6585 4.48498 11.559L4.46748 11.5645L5.67848 11.1235V12.4195C5.60348 12.438 5.51848 12.447 5.43498 12.465C5.04748 12.533 4.60148 12.572 4.14648 12.572C3.25748 12.572 2.40348 12.423 1.60748 12.149L1.66248 12.1655L1.65498 12.124ZM9.04848 12.272L12.9825 10.8505C13.429 10.6895 13.4985 10.46 13.136 10.3395C12.9545 10.295 12.7465 10.2695 12.532 10.2695C12.221 10.2695 11.922 10.3235 11.645 10.422L11.6635 10.4165L9.03598 11.3535V9.86199L9.18598 9.80899C9.71098 9.63449 10.328 9.49899 10.9645 9.42849L11.006 9.42449C11.24 9.39949 11.511 9.38549 11.7855 9.38549C12.724 9.38549 13.624 9.55099 14.457 9.85499L14.403 9.83749C15.5575 10.213 15.6775 10.757 15.3875 11.132C15.108 11.4105 14.77 11.631 14.3935 11.773L14.374 11.7795L9.03548 13.721V12.2865L9.04848 12.272ZM6.13948 2.12399V13.0875L8.58548 13.8755V4.68049C8.58548 4.24949 8.77548 3.96149 9.08148 4.06149C9.47898 4.17399 9.55648 4.56999 9.55648 5.00199V8.67299C11.0815 9.41849 12.282 8.67149 12.282 6.70349C12.282 4.68099 11.5785 3.78249 9.50898 3.06249C8.61648 2.73849 7.48898 2.41549 6.33548 2.15999L6.14098 2.12399H6.13948Z" fill="currentColor"/>
</g>
<defs>
<clipPath id="clip0_53_563">
<rect width="16" height="16" fill="currentColor" transform="translate(0.0239868)"/>
</clipPath>
</defs>
</svg>
