<svg width="17" height="16" viewBox="0 0 17 16" fill="none" xmlns="http://www.w3.org/2000/svg">
<path d="M15.3159 8.05894C15.3169 9.3696 14.9315 10.6515 14.2079 11.7443C13.4844 12.8372 12.4547 13.6925 11.2477 14.2034C10.0407 14.7143 8.70994 14.8581 7.42168 14.6168C6.13342 14.3755 4.94485 13.7599 4.00454 12.8468C3.06424 11.9338 2.41392 10.7638 2.13488 9.48319C1.85583 8.20258 1.96045 6.86812 2.43564 5.64663C2.91083 4.42514 3.73551 3.37082 4.80661 2.61544C5.8777 1.86006 7.14769 1.43715 8.45781 1.39957C8.58389 1.38327 8.71153 1.38327 8.8376 1.39957C10.5717 1.4478 12.2187 2.1704 13.4284 3.41379C14.6381 4.65718 15.3153 6.32416 15.3159 8.05894ZM6.41739 13.3373C6.55999 13.3973 6.70455 13.4515 6.85108 13.4998C5.97765 11.984 5.52093 10.264 5.52729 8.51452H2.9336C3.01822 9.55997 3.38769 10.5623 4.00188 11.4125C4.61606 12.2627 5.45148 12.9284 6.41739 13.3373ZM3.3656 5.82905C3.12937 6.38671 2.98408 6.97864 2.93529 7.58231H5.52729C5.52203 5.84339 5.97203 4.13339 6.83255 2.62231C6.69276 2.66891 6.55438 2.72112 6.41739 2.77894C5.04307 3.3614 3.94882 4.45505 3.3656 5.82905ZM10.8351 7.58231C10.8143 6.92903 10.7408 6.27849 10.6153 5.63705C10.4925 4.9808 10.2909 4.34179 10.0149 3.73389C9.63845 2.93221 9.16518 2.40926 8.75424 2.3301C8.68322 2.32904 8.6122 2.32904 8.54118 2.3301C8.13024 2.40926 7.65697 2.93221 7.28055 3.73473C7.00482 4.34267 6.8035 4.98168 6.68097 5.63789C6.55546 6.27905 6.48196 6.92931 6.46118 7.58231H10.8351ZM10.0149 12.3621C10.2909 11.7542 10.4925 11.1152 10.6153 10.4589C10.7405 9.81775 10.8137 9.1675 10.8342 8.51452H6.46203C6.48279 9.1678 6.55629 9.81834 6.68181 10.4598C6.80438 11.1157 7.0057 11.7544 7.28139 12.3621C7.6915 13.2345 8.21529 13.7768 8.64897 13.7768C9.08266 13.7768 9.60645 13.2345 10.0157 12.3621H10.0149ZM13.9323 10.2888C14.1712 9.72461 14.3171 9.12541 14.3643 8.51452H11.769C11.7757 10.2646 11.319 11.9852 10.4452 13.5015C10.5917 13.4532 10.7368 13.3987 10.8806 13.3381C12.2547 12.7558 13.3489 11.6625 13.9323 10.2888ZM10.8806 2.77894C10.7434 2.72106 10.6041 2.66853 10.4629 2.62147C11.3235 4.13252 11.7735 5.84254 11.7681 7.58147H14.3627C14.2747 6.53973 13.9039 5.54179 13.2902 4.69541C12.6766 3.84903 11.8433 3.18636 10.8806 2.77894Z" fill="currentColor"/>
</svg>
