<svg width="17" height="16" viewBox="0 0 17 16" fill="none" xmlns="http://www.w3.org/2000/svg">
<g clip-path="url(#clip0_53_565)">
<path d="M8.02398 2.71251C7.07998 2.15001 5.97098 1.75151 4.78748 1.58801L4.74148 1.58301C4.70648 1.58051 4.66548 1.57901 4.62448 1.57901C4.31798 1.57901 4.03048 1.65901 3.78098 1.79951L3.78948 1.79501C4.96798 0.978005 6.42798 0.490005 8.00248 0.490005C8.00648 0.490005 8.01048 0.490005 8.01448 0.490005H8.02398C8.02648 0.490005 8.02948 0.490005 8.03298 0.490005C9.61148 0.490005 11.076 0.978005 12.2835 1.81101L12.2585 1.79451C12.0195 1.65851 11.733 1.57801 11.4275 1.57801C11.385 1.57801 11.343 1.57951 11.3015 1.58251L11.307 1.58201C10.0775 1.75001 8.96848 2.14701 7.98298 2.73051L8.02398 2.70801V2.71251ZM2.80098 2.63401C2.78048 2.64101 2.76248 2.65001 2.74598 2.66101L2.74698 2.66051C1.36798 4.02201 0.513977 5.91251 0.513977 8.00251C0.513977 9.79451 1.14198 11.44 2.19048 12.731L2.17948 12.717C1.30248 11.0865 4.41948 6.48951 5.98448 4.63751C4.21948 2.87701 3.34598 2.60651 2.97698 2.60651C2.97198 2.60651 2.96648 2.60601 2.96098 2.60601C2.90348 2.60601 2.84848 2.61651 2.79798 2.63601L2.80098 2.63501V2.63401ZM10.0655 4.63751C11.63 6.49051 14.749 11.0915 13.868 12.718C14.9055 11.441 15.534 9.79551 15.534 8.00301C15.534 5.91251 14.6795 4.02201 13.3005 2.66101L13.2995 2.66001C13.285 2.64951 13.268 2.64051 13.2495 2.63401L13.248 2.63351C13.198 2.61551 13.14 2.60551 13.08 2.60551C13.0775 2.60551 13.0745 2.60551 13.072 2.60551C12.7015 2.60551 11.83 2.87751 10.0655 4.63751ZM3.08098 13.653C4.39448 14.806 6.12748 15.51 8.02498 15.51C9.92248 15.51 11.6555 14.8065 12.9775 13.646L12.969 13.6535C14.1435 12.457 10.268 8.20301 8.02398 6.50851C5.78248 8.20351 1.90398 12.4565 3.08098 13.653Z" fill="currentColor"/>
</g>
<defs>
<clipPath id="clip0_53_565">
<rect width="16" height="16" fill="currentColor" transform="translate(0.0239868)"/>
</clipPath>
</defs>
</svg>
