<svg width="25" height="24" viewBox="0 0 25 24" fill="none" xmlns="http://www.w3.org/2000/svg">
<path d="M9.94469 13.228L11.3587 14.642L19.7947 6.207L19.5587 5.028L18.3807 4.792L9.94469 13.228ZM7.11669 18.885C7.29884 19.0736 7.39964 19.3262 7.39736 19.5884C7.39508 19.8506 7.28991 20.1014 7.10451 20.2868C6.9191 20.4722 6.66828 20.5774 6.40609 20.5797C6.14389 20.5819 5.89129 20.4812 5.70269 20.299L4.28669 18.885C4.09918 18.6974 3.99389 18.4429 3.99398 18.1776C3.99408 17.9124 4.09955 17.658 4.28719 17.4705C4.47483 17.283 4.72927 17.1777 4.99454 17.1778C5.25981 17.1779 5.51418 17.2834 5.70169 17.471L8.52969 14.642L7.11569 13.228C6.93353 13.0394 6.83273 12.7868 6.83501 12.5246C6.83729 12.2624 6.94246 12.0116 7.12787 11.8262C7.31328 11.6408 7.56409 11.5356 7.82629 11.5333C8.08848 11.531 8.34108 11.6318 8.52969 11.814L17.7227 2.62L21.2587 3.327L21.9657 6.863L12.7737 16.055C12.9613 16.2426 13.0667 16.4971 13.0667 16.7625C13.0667 17.0279 12.9613 17.2824 12.7737 17.47C12.586 17.6576 12.3316 17.7631 12.0662 17.7631C11.8008 17.7631 11.5463 17.6576 11.3587 17.47L9.94469 16.055L7.11669 18.885Z" fill="currentColor"/>
</svg>
