<svg width="24" height="24" viewBox="0 0 24 24" fill="none" xmlns="http://www.w3.org/2000/svg">
<path d="M7.50003 20C8.32846 20 9.00003 19.3284 9.00003 18.5C9.00003 17.6716 8.32846 17 7.50003 17C6.6716 17 6.00003 17.6716 6.00003 18.5C6.00003 19.3284 6.6716 20 7.50003 20Z" fill="currentColor"/>
<path d="M16.5 20C17.3285 20 18 19.3284 18 18.5C18 17.6716 17.3285 17 16.5 17C15.6716 17 15 17.6716 15 18.5C15 19.3284 15.6716 20 16.5 20Z" fill="currentColor"/>
<path d="M3.00003 5H5.00003L5.60003 8M5.60003 8L7.00003 15H17L19 8H5.60003Z" stroke="currentColor" stroke-width="2" stroke-linecap="round" stroke-linejoin="round"/>
</svg>
