<svg width="17" height="16" viewBox="0 0 17 16" fill="none" xmlns="http://www.w3.org/2000/svg">
<path d="M10.9823 5.33333H9.31566V2.66667C9.31566 2.48986 9.24543 2.32029 9.1204 2.19526C8.99538 2.07024 8.82581 2 8.649 2C8.47219 2 8.30262 2.07024 8.17759 2.19526C8.05257 2.32029 7.98233 2.48986 7.98233 2.66667V5.33333H6.31566C5.16639 5.33333 4.06419 5.78988 3.25153 6.60254C2.43888 7.41519 1.98233 8.5174 1.98233 9.66667C1.98233 10.8159 2.43888 11.9181 3.25153 12.7308C4.06419 13.5435 5.16639 14 6.31566 14H10.9823C12.1316 14 13.2338 13.5435 14.0465 12.7308C14.8591 11.9181 15.3157 10.8159 15.3157 9.66667C15.3157 8.5174 14.8591 7.41519 14.0465 6.60254C13.2338 5.78988 12.1316 5.33333 10.9823 5.33333ZM7.31566 10.3333H6.649V11C6.649 11.1768 6.57876 11.3464 6.45373 11.4714C6.32871 11.5964 6.15914 11.6667 5.98233 11.6667C5.80552 11.6667 5.63595 11.5964 5.51093 11.4714C5.3859 11.3464 5.31566 11.1768 5.31566 11V10.3333H4.649C4.47219 10.3333 4.30262 10.2631 4.17759 10.1381C4.05257 10.013 3.98233 9.84348 3.98233 9.66667C3.98233 9.48986 4.05257 9.32029 4.17759 9.19526C4.30262 9.07024 4.47219 9 4.649 9H5.31566V8.33333C5.31566 8.15652 5.3859 7.98695 5.51093 7.86193C5.63595 7.7369 5.80552 7.66667 5.98233 7.66667C6.15914 7.66667 6.32871 7.7369 6.45373 7.86193C6.57876 7.98695 6.649 8.15652 6.649 8.33333V9H7.31566C7.49247 9 7.66204 9.07024 7.78707 9.19526C7.91209 9.32029 7.98233 9.48986 7.98233 9.66667C7.98233 9.84348 7.91209 10.013 7.78707 10.1381C7.66204 10.2631 7.49247 10.3333 7.31566 10.3333ZM11.3157 11.3333C11.1838 11.3333 11.0549 11.2942 10.9453 11.221C10.8356 11.1477 10.7502 11.0436 10.6997 10.9218C10.6493 10.8 10.6361 10.6659 10.6618 10.5366C10.6875 10.4073 10.751 10.2885 10.8443 10.1953C10.9375 10.102 11.0563 10.0385 11.1856 10.0128C11.3149 9.98709 11.449 10.0003 11.5708 10.0507C11.6926 10.1012 11.7967 10.1867 11.87 10.2963C11.9432 10.4059 11.9823 10.5348 11.9823 10.6667C11.9823 10.8435 11.9121 11.013 11.7871 11.1381C11.662 11.2631 11.4925 11.3333 11.3157 11.3333ZM12.649 9.33333C12.5171 9.33333 12.3882 9.29423 12.2786 9.22098C12.169 9.14773 12.0835 9.04361 12.0331 8.92179C11.9826 8.79997 11.9694 8.66593 11.9951 8.53661C12.0209 8.40729 12.0844 8.2885 12.1776 8.19526C12.2708 8.10203 12.3896 8.03853 12.5189 8.01281C12.6483 7.98709 12.7823 8.00029 12.9041 8.05075C13.0259 8.10121 13.1301 8.18665 13.2033 8.29629C13.2766 8.40592 13.3157 8.53481 13.3157 8.66667C13.3157 8.84348 13.2454 9.01305 13.1204 9.13807C12.9954 9.2631 12.8258 9.33333 12.649 9.33333Z" fill="currentColor"/>
</svg>
