<svg width="26" height="26" viewBox="0 0 26 26" fill="none" xmlns="http://www.w3.org/2000/svg">
<g clip-path="url(#clip0_7_8)">
<path d="M9.17734 25.9658C9.4313 26.1009 9.69921 25.8085 9.54372 25.5665C8.69973 24.2529 7.90053 22.0426 9.17385 19.196C11.2973 14.449 12.5894 11.9904 12.5894 11.9904C12.5894 11.9904 13.2766 14.8595 15.1396 17.4106C16.9327 19.8659 17.9141 22.9538 16.3319 25.5263C16.1834 25.7677 16.4452 26.0526 16.6976 25.9234C18.6561 24.9216 20.8527 22.912 21.1006 18.9129C21.1919 17.6909 21.0549 15.9801 20.3696 13.8212C19.4884 11.085 18.4052 9.80822 17.7784 9.25992C17.5909 9.09589 17.2994 9.24127 17.3148 9.48989C17.4974 12.4423 16.3867 13.1915 15.7545 11.503C15.502 10.8286 15.3548 9.6622 15.3548 8.24171C15.3548 5.87686 14.6687 3.44246 13.156 1.46424C12.7627 0.949808 12.3024 0.469104 11.7743 0.0591785C11.5831 -0.0892596 11.306 0.0599432 11.3235 0.301336C11.4397 1.9045 11.3344 6.49908 7.30355 11.9881C3.64872 17.0799 5.06495 20.9903 5.56749 22.0494C6.52831 24.0784 7.8685 25.2699 9.17734 25.9658Z" fill="currentColor"/>
</g>
<defs>
<clipPath id="clip0_7_8">
<rect width="26" height="26" fill="white"/>
</clipPath>
</defs>
</svg>
